<?xml version="1.0" encoding="UTF-8"?>
<!DOCTYPE svg PUBLIC "-//W3C//DTD SVG 1.1//EN" "http://www.w3.org/Graphics/SVG/1.1/DTD/svg11.dtd">
<!-- Creator: CorelDRAW 2021.5 (Evaluation Version) -->
<svg xmlns="http://www.w3.org/2000/svg" xml:space="preserve" width="208.295mm" height="62.1179mm" version="1.1" style="shape-rendering:geometricPrecision; text-rendering:geometricPrecision; image-rendering:optimizeQuality; fill-rule:evenodd; clip-rule:evenodd"
viewBox="0 0 14009.8 4178.01"
 xmlns:xlink="http://www.w3.org/1999/xlink"
 xmlns:xodm="http://www.corel.com/coreldraw/odm/2003">
 <defs>
  <style type="text/css">
   <![CDATA[
    .str0 {stroke:#373435;stroke-width:17.8;stroke-miterlimit:22.9256}
    .fil3 {fill:none}
    .fil6 {fill:#373435}
    .fil4 {fill:#373435}
    .fil1 {fill:red}
    .fil5 {fill:#373435;fill-rule:nonzero}
    .fil2 {fill:#373435;fill-rule:nonzero}
    .fil0 {fill:red;fill-rule:nonzero}
   ]]>
  </style>
 </defs>
 <g id="Layer_x0020_1">
  <metadata id="CorelCorpID_0Corel-Layer"/>
  <g id="_2186924648624">
   <g>
    <path class="fil0" d="M6151.39 2392.08l-2.85 -339.4c0,-336.55 -11.41,-559.97 -34.22,-670.25 -3.81,-13.31 -5.7,-23.77 -5.7,-31.38 0,-32.32 32.32,-59.89 96.97,-82.71 64.65,-22.82 115.99,-34.23 154.02,-34.23 38.03,0 57.04,11.41 57.04,34.23 0,1.9 -1.9,12.36 -5.71,31.37 -43.73,233.87 -65.6,605.6 -65.6,1115.18 0,347.95 19.97,597.99 59.89,750.1 7.61,24.72 11.41,38.03 11.41,39.93 0,39.93 -43.73,72.73 -131.2,98.39 -87.46,25.67 -149.26,38.51 -185.39,38.51 -57.04,0 -96.02,-13.31 -116.94,-39.93 -41.83,-53.24 -109.8,-202.98 -203.92,-449.2 -94.12,-246.24 -176.35,-475.83 -246.71,-688.78l-108.38 -319.44c-3.8,-9.5 -8.56,-14.26 -14.26,-14.26 -7.61,0 -16.16,6.65 -25.67,19.96 -9.51,176.83 -14.27,353.66 -14.27,530.49 0,176.83 1.43,312.78 4.28,407.85 2.85,95.07 6.18,167.32 9.99,216.76 3.8,49.44 7.6,88.9 11.41,118.36 3.8,29.47 7.13,50.87 9.98,64.17 2.85,13.31 4.28,22.82 4.28,28.52 0,36.12 -31.38,64.17 -94.12,84.13 -62.75,19.97 -119.31,29.95 -169.7,29.95 -50.39,0 -75.59,-11.41 -75.59,-34.23 0,-11.41 2.85,-25.67 8.56,-42.78 5.7,-17.11 12.36,-38.98 19.96,-65.6 19.01,-66.55 32.32,-187.76 39.93,-363.64 7.6,-175.88 11.41,-376.48 11.41,-601.8 0,-225.31 -2.85,-389.31 -8.56,-491.99 -9.51,-167.32 -26.62,-279.5 -51.34,-336.55 -5.7,-5.7 -8.56,-13.31 -8.56,-22.82 0,-30.42 50.38,-59.89 151.16,-88.41 100.77,-28.52 179.21,-42.78 235.3,-42.78 56.09,0 88.89,0.96 98.4,2.85 26.61,-1.9 42.78,13.31 48.48,45.64 55.15,199.65 132.63,434.47 232.45,704.47 99.83,270 188.72,476.3 266.68,618.91 9.5,9.5 17.11,14.26 22.81,14.26 9.5,0 14.26,-77.95 14.26,-233.87z"/>
    <path class="fil1" d="M6623.36 3193.46l20.35 -633.42c0,-150.42 -11.72,-252.82 -35.15,-307.19 -7.4,-18.13 -16.03,-31.72 -25.89,-40.78 -7.41,-3.63 -11.1,-10.88 -11.1,-21.75 0,-32.62 31.45,-64.33 94.35,-95.14 62.89,-30.81 108.84,-46.21 137.83,-46.21 28.98,0 44.09,10.87 45.32,32.61 0,36.25 -3.39,139.11 -10.17,308.56 -6.79,169.45 -10.18,347.52 -10.18,534.19 0,186.67 7.41,302.67 22.21,347.97 3.69,9.07 5.55,18.13 5.55,27.18 0,23.57 -23.43,35.34 -70.31,35.34 -46.87,0 -94.96,-18.12 -144.3,-54.37 -12.33,-9.06 -18.5,-38.06 -18.5,-86.99z"/>
    <path class="fil1" d="M8599.27 3185.29l20.35 -633.42c0,-150.43 -11.72,-252.83 -35.16,-307.19 -7.4,-18.12 -16.03,-31.71 -25.89,-40.77 -7.41,-3.63 -11.1,-10.88 -11.1,-21.76 0,-32.62 31.46,-64.33 94.35,-95.14 62.9,-30.81 108.84,-46.22 137.83,-46.22 28.98,0 44.09,10.88 45.32,32.62 0,36.25 -3.39,139.11 -10.17,308.56 -6.79,169.45 -10.18,347.52 -10.18,534.19 0,186.67 7.41,302.66 22.2,347.97 3.7,9.07 5.55,18.13 5.55,27.18 0,23.57 -23.43,35.34 -70.3,35.34 -46.87,0 -94.97,-18.13 -144.3,-54.37 -12.33,-9.06 -18.5,-38.06 -18.5,-86.99z"/>
    <path class="fil1" d="M11959.96 3188.6l20.35 -633.42c0,-150.43 -11.72,-252.83 -35.16,-307.19 -7.4,-18.13 -16.03,-31.71 -25.89,-40.77 -7.41,-3.63 -11.1,-10.88 -11.1,-21.76 0,-32.62 31.45,-64.33 94.34,-95.14 62.9,-30.8 108.84,-46.21 137.83,-46.21 28.98,0 44.09,10.88 45.32,32.62 0,36.25 -3.38,139.11 -10.17,308.56 -6.78,169.45 -10.18,347.51 -10.18,534.19 0,186.67 7.41,302.66 22.2,347.97 3.7,9.06 5.55,18.13 5.55,27.18 0,23.57 -23.43,35.34 -70.3,35.34 -46.87,0 -94.96,-18.13 -144.3,-54.37 -12.33,-9.07 -18.5,-38.06 -18.5,-86.99z"/>
    <path class="fil0" d="M7429.12 2717.01c-4.78,4.79 -7.18,9.87 -7.18,15.25 0,5.39 11.06,10.47 33.2,15.26 22.14,4.78 46.37,17.94 72.69,39.48 26.33,21.54 46.07,44.87 59.23,70 25.13,49.06 38.89,92.13 41.28,129.22l1.79 23.33c5.99,139.99 31.71,235.72 77.18,287.16 5.98,8.37 8.97,14.36 8.97,17.95 0,13.16 -16.75,19.74 -50.26,19.74 -100.51,0 -164.52,-20.94 -192.04,-62.82 -14.36,-16.75 -21.54,-68.8 -21.54,-156.14l0 -44.87c0,-111.27 -13.76,-188.45 -41.28,-231.53 -14.36,-20.34 -32.01,-30.51 -52.95,-30.51 -20.94,0 -42.78,18.25 -65.51,54.74 -22.73,36.49 -34.1,67.3 -34.1,92.43 0,100.51 2.39,170.5 7.18,209.99 4.78,39.48 7.18,59.82 7.18,61.02 0,34.7 -23.63,61.62 -70.89,80.76 -47.26,19.15 -91.84,28.72 -133.71,28.72 -15.56,0 -23.33,-9.57 -23.33,-28.72l0 -7.18c28.71,-147.17 43.07,-379.3 43.07,-696.37 0,-104.1 -2.39,-192.04 -7.18,-263.83l-3.59 -35.89c-2.39,-33.51 -9.28,-62.22 -20.64,-86.15 -11.37,-23.93 -22.43,-39.48 -33.2,-46.66l-14.36 -8.97c-8.37,-4.79 -12.56,-10.17 -12.56,-16.16 0,-19.14 28.72,-40.68 86.15,-64.61 57.43,-23.93 107.08,-35.9 148.97,-35.9 19.14,1.2 29.31,8.38 30.51,21.54 5.98,47.86 8.97,146.28 8.97,295.24 0,148.97 -3.59,267.72 -10.77,356.26 0,14.36 2.39,21.54 7.18,21.54 4.79,0 12.27,-6.88 22.44,-20.64 10.17,-13.75 28.11,-35.59 53.84,-65.5 25.73,-29.92 60.43,-64.62 104.1,-104.1 43.67,-39.49 78.97,-59.23 105.89,-59.23 26.92,0 53.54,6.58 79.86,19.74 26.33,13.16 39.49,25.73 39.49,37.69l-19.75 12.56c-68.2,25.13 -142.98,77.17 -224.34,156.14z"/>
    <path class="fil0" d="M8207.28 2716.23c-4.78,4.79 -7.18,9.87 -7.18,15.25 0,5.39 11.06,10.47 33.2,15.26 22.14,4.78 46.37,17.94 72.69,39.48 26.33,21.54 46.07,44.87 59.23,70 25.13,49.06 38.89,92.13 41.28,129.22l1.79 23.33c5.99,139.99 31.71,235.72 77.18,287.16 5.98,8.37 8.97,14.36 8.97,17.95 0,13.16 -16.75,19.74 -50.26,19.74 -100.51,0 -164.52,-20.94 -192.04,-62.82 -14.36,-16.75 -21.54,-68.8 -21.54,-156.14l0 -44.87c0,-111.27 -13.76,-188.45 -41.28,-231.53 -14.36,-20.34 -32.01,-30.51 -52.95,-30.51 -20.94,0 -42.78,18.25 -65.51,54.74 -22.73,36.49 -34.1,67.3 -34.1,92.43 0,100.51 2.39,170.5 7.18,209.99 4.78,39.48 7.18,59.82 7.18,61.02 0,34.7 -23.63,61.62 -70.89,80.76 -47.26,19.15 -91.84,28.72 -133.71,28.72 -15.56,0 -23.33,-9.57 -23.33,-28.72l0 -7.18c28.71,-147.17 43.07,-379.3 43.07,-696.37 0,-104.1 -2.39,-192.04 -7.18,-263.83l-3.59 -35.89c-2.39,-33.51 -9.28,-62.22 -20.64,-86.15 -11.37,-23.93 -22.43,-39.48 -33.2,-46.66l-14.36 -8.97c-8.37,-4.79 -12.56,-10.17 -12.56,-16.16 0,-19.14 28.72,-40.68 86.15,-64.61 57.43,-23.93 107.08,-35.9 148.97,-35.9 19.14,1.2 29.31,8.38 30.51,21.54 5.98,47.86 8.97,146.28 8.97,295.24 0,148.97 -3.59,267.72 -10.77,356.26 0,14.36 2.39,21.54 7.18,21.54 4.79,0 12.27,-6.88 22.44,-20.64 10.17,-13.75 28.11,-35.59 53.84,-65.5 25.73,-29.92 60.43,-64.62 104.1,-104.1 43.67,-39.49 78.97,-59.23 105.89,-59.23 26.92,0 53.54,6.58 79.86,19.74 26.33,13.16 39.49,25.73 39.49,37.69l-19.75 12.56c-68.2,25.13 -142.98,77.17 -224.34,156.14z"/>
    <path class="fil0" d="M10464.8 1711.04l11.29 -87.52c0,-86.58 -33.88,-142.11 -101.64,-166.58 -52.7,-16.94 -93.17,-25.41 -121.4,-25.41l-2.82 0c-56.46,0 -105.41,8.95 -146.81,26.82 -41.41,17.88 -71.53,40 -90.35,66.35 -39.53,54.59 -62.11,111.99 -67.76,172.22 0,71.53 32,133.17 96,184.94 64,51.76 141.63,96.93 232.93,135.52 91.29,38.59 182.58,80.46 273.87,125.64 91.29,45.17 168.94,110.11 232.93,194.81 64,84.71 95.99,186.35 95.99,304.93 0,231.52 -72.94,404.69 -218.81,519.5 -145.88,114.82 -311.52,172.22 -496.92,172.22 -185.4,0 -338.81,-41.88 -460.21,-125.64 -121.41,-83.76 -182.11,-196.22 -182.11,-337.39l0 -2.82c0,-69.64 10.82,-130.34 32.47,-182.1 21.64,-51.76 47.53,-89.88 77.64,-114.35 62.11,-50.82 118.58,-78.11 169.41,-81.88l33.88 -2.82c52.7,0 100.7,12.71 144,38.12 43.29,25.41 64.94,60.71 64.94,105.88 0,22.59 -12.23,41.41 -36.7,56.47 -24.47,15.05 -45.65,37.65 -63.53,67.76 -17.88,30.12 -27.76,55.53 -29.65,76.23l-5.65 31.06c0,114.82 52.7,191.05 158.11,228.7 37.65,13.18 67.76,19.76 90.35,19.76 103.52,0 186.81,-31.06 249.87,-93.17 63.06,-62.11 94.58,-141.16 94.58,-237.16 0,-114.82 -48.94,-207.99 -146.81,-279.52 -73.41,-52.7 -152.93,-96.93 -238.58,-132.7 -85.64,-35.76 -143.52,-61.17 -173.64,-76.23 -30.12,-15.06 -62.11,-32.94 -96,-53.65 -33.88,-20.7 -71.52,-49.88 -112.94,-87.52 -90.35,-79.06 -135.52,-185.87 -135.52,-320.45 0,-134.59 36.7,-247.99 110.11,-340.22 131.76,-167.52 329.4,-251.28 592.91,-251.28 139.29,0 256.93,26.82 352.92,80.46 96,53.65 144,127.52 144,221.64 0,67.76 -19.3,124.23 -57.88,169.4 -38.59,45.18 -88,67.76 -148.23,67.76 -28.24,0 -55.99,-5.65 -83.29,-16.94 -27.29,-11.29 -40.94,-28.24 -40.94,-50.82z"/>
    <path class="fil0" d="M11003.47 2871.16c3.19,-184.44 4.79,-336.01 4.79,-454.71 0,-118.7 -7.18,-231.92 -21.54,-339.66 0,-18.26 15.95,-27.39 47.87,-27.39 31.91,0 59.44,4.57 82.57,13.7 23.14,9.13 39.49,19.17 49.07,30.13 25.53,29.22 40.3,43.83 44.28,43.83 3.99,0 16.36,-8.22 37.1,-24.66 62.24,-45.65 131.25,-68.48 207.04,-68.48 75.79,0 142.02,21.91 198.66,65.74 56.65,43.83 96.94,101.35 120.88,172.57 43.09,122.35 64.63,252.01 64.63,388.97 0,135.13 -21.54,270.27 -64.63,405.41 -23.94,73.04 -59.04,132.85 -105.32,179.41 -46.27,46.57 -100.53,69.85 -162.76,69.85 -122.87,0 -184.3,-81.26 -184.3,-243.79 0,-43.83 7.98,-65.74 23.94,-65.74 3.19,0 12.36,4.11 27.52,12.32 15.16,8.22 29.92,12.33 44.28,12.33 113.3,0 169.94,-137.42 169.94,-412.25 0,-274.83 -60.64,-412.25 -181.92,-412.25 -33.51,0 -61.82,8.68 -84.97,26.02 -23.14,17.35 -37.9,34.24 -44.28,50.68l-9.57 27.39c-22.34,164.35 -33.51,481.19 -33.51,950.51 0,211.83 3.59,363.86 10.77,456.08 7.18,92.22 10.77,147.47 10.77,165.73 0,18.26 -4.79,34.69 -14.36,49.3 -31.91,47.49 -74.99,89.94 -129.25,127.38 -54.25,37.44 -102.13,56.15 -143.61,56.15 -15.96,0 -23.94,-11.87 -23.94,-35.61 25.53,-184.45 45.48,-590.76 59.83,-1218.95z"/>
    <path class="fil0" d="M13107.6 2972.4c0,103.49 -36.39,189.27 -109.18,257.35 -72.78,68.08 -159.56,102.12 -260.33,102.12 -147.17,0 -255.15,-50.38 -323.93,-151.14 -68.79,-100.77 -103.18,-237.38 -103.18,-409.86 0,-183.37 36,-345.86 107.98,-487.48 35.19,-72.62 85.58,-129.81 151.17,-171.56 65.58,-41.76 142.37,-62.64 230.35,-62.64 132.76,0 226.35,50.83 280.73,152.5 22.4,41.76 33.6,90.78 33.6,147.06 0,87.14 -32,152.5 -95.98,196.07 -25.59,16.34 -49.19,24.51 -70.78,24.51 -21.6,0 -39.19,-1.36 -52.79,-4.08 -13.6,-2.72 -31.6,-14.98 -54,-36.76 -22.39,-21.79 -33.59,-51.74 -33.59,-89.87 1.6,-19.97 15.19,-36.31 40.79,-49.02 23.99,-16.34 35.99,-45.39 35.99,-87.14 0,-70.81 -38.39,-106.21 -115.17,-106.21 -19.2,0 -42,9.53 -68.39,28.59 -26.39,19.06 -48.39,43.57 -65.99,73.53 -17.6,29.96 -33.99,77.16 -49.19,141.61 -15.19,64.45 -22.79,126.18 -22.79,185.18 0,59 2,103.49 6,133.44 4,29.95 12.79,70.8 26.39,122.55 13.6,51.74 39.19,93.95 76.78,126.64 37.59,32.67 84.38,49.02 140.37,49.02 67.19,0 126.37,-31.77 177.56,-95.32 20.8,-25.42 37.59,-56.28 50.39,-92.59 6.4,-14.53 14.39,-21.79 23.99,-21.79 14.39,0 25.2,14.98 32.39,44.94 7.2,29.95 10.8,56.73 10.8,80.33z"/>
    <path class="fil0" d="M13462.73 2593.85l2.4 68.09c0,10.89 6.4,16.34 19.2,16.34 51.19,-5.45 95.98,-20.43 134.36,-44.94 38.4,-24.51 67.19,-52.19 86.38,-83.06 38.4,-67.17 59.19,-125.27 62.39,-174.29l2.4 -32.68c0,-98.04 -34.4,-147.06 -103.18,-147.06 -51.18,0 -92.78,25.42 -124.77,76.25 -52.79,79.88 -79.18,187 -79.18,321.34zm523.08 362.2c0,68.99 -12.4,129.35 -37.19,181.1 -24.79,51.74 -52.79,89.87 -83.98,114.38 -31.19,24.51 -67.58,44.03 -109.18,58.55 -52.79,18.15 -103.18,27.23 -151.17,27.23 -134.36,0 -233.54,-57.19 -297.53,-171.56 -63.98,-114.38 -95.98,-260.08 -95.98,-437.09 0,-177.01 39.59,-334.51 118.77,-472.5 79.18,-137.98 197.96,-206.97 356.32,-206.97 143.97,0 241.55,57.19 292.74,171.57 20.8,43.57 31.19,84.87 31.19,123.91 0,39.04 -1.6,69.9 -4.8,92.6 -3.19,22.69 -14.39,56.73 -33.59,102.12 -19.19,45.39 -44.79,86.24 -76.78,122.55 -31.99,36.31 -82.38,70.8 -151.16,103.49 -68.79,32.68 -149.57,54.47 -242.35,65.36 -12.79,0 -19.2,6.36 -19.2,19.07 0,16.34 5.2,40.4 15.6,72.16 10.4,31.77 22,58.56 34.79,80.34 35.19,50.83 87.17,76.25 155.96,76.25 68.79,0 127.17,-25.42 175.16,-76.25 25.6,-27.23 46.39,-60.82 62.38,-100.76 6.4,-14.53 14.8,-21.79 25.2,-21.79 10.4,0 18.8,9.99 25.2,29.96 6.4,19.98 9.6,35.41 9.6,46.3z"/>
   </g>
   <g>
    <path class="fil1" d="M2826.93 3759.61c134.35,-922.68 873.69,-1367.41 774.77,-286.22 -232.08,147.82 -493.83,236.23 -774.77,286.22z"/>
    <path class="fil2" d="M3089.48 2948.4c-50.39,-22.42 -90.58,-12.14 -112.78,-27.65 -22.2,-15.51 -38.4,-39.61 -20.37,-65.38 18,-25.78 46.17,-18.86 68.39,-3.35 22.2,15.51 26.37,56.79 64.76,96.38z"/>
    <path class="fil2" d="M3400.86 2763.11c-23.49,-73.08 -19.31,-139.51 -5.45,-178.84 13.88,-39.37 42.98,-73.34 88.67,-57.24 45.7,16.12 47.05,60.82 33.17,100.2 -13.86,39.33 -64.33,76.2 -116.39,135.88z"/>
    <path class="fil2" d="M3601.61 2877.88c-29.47,-59.89 -2.58,-85.17 8.3,-107.93 10.9,-22.79 30.61,-41.34 57.06,-28.7 26.45,12.66 24.37,39.64 13.47,62.42 -10.9,22.76 -52.6,27.48 -78.83,74.21z"/>
    <path class="fil3 str0" d="M1043.46 3166.41c1048.38,763.97 2063.84,874.93 3043.99,-53.57"/>
    <path class="fil3 str0" d="M1290.91 1725.14c233.31,294.05 640.46,288.44 901.98,13.61"/>
    <path class="fil3 str0" d="M2892.24 1735.4c233.31,294.05 640.46,288.44 901.99,13.61"/>
    <path class="fil4" d="M2269.55 0c-1253.44,0 -2269.55,1025.72 -2269.55,2291.01 0,782.71 388.83,1473.74 982.15,1887 -510.2,-420.1 -836.01,-1059.76 -836.01,-1776.22 0,-1265.29 1016.11,-2291.01 2269.55,-2291.01 478.07,0 921.6,149.2 1287.41,404.01 -390.83,-321.81 -889.85,-514.79 -1433.55,-514.79z"/>
   </g>
   <g>
    <path class="fil5" d="M6088.2 2352.82l-2.85 -339.4c0,-336.55 -11.41,-559.97 -34.22,-670.25 -3.81,-13.31 -5.7,-23.77 -5.7,-31.38 0,-32.32 32.32,-59.89 96.97,-82.71 64.65,-22.82 115.99,-34.23 154.02,-34.23 38.03,0 57.04,11.41 57.04,34.23 0,1.9 -1.9,12.36 -5.71,31.37 -43.73,233.87 -65.6,605.6 -65.6,1115.18 0,347.95 19.97,597.99 59.89,750.1 7.61,24.72 11.41,38.03 11.41,39.93 0,39.93 -43.73,72.73 -131.2,98.39 -87.46,25.67 -149.26,38.51 -185.39,38.51 -57.04,0 -96.02,-13.31 -116.94,-39.93 -41.83,-53.24 -109.8,-202.98 -203.92,-449.2 -94.12,-246.24 -176.35,-475.83 -246.71,-688.78l-108.38 -319.44c-3.8,-9.5 -8.56,-14.26 -14.26,-14.26 -7.61,0 -16.16,6.65 -25.67,19.96 -9.51,176.83 -14.27,353.66 -14.27,530.49 0,176.83 1.43,312.78 4.28,407.85 2.85,95.07 6.18,167.32 9.99,216.76 3.8,49.44 7.6,88.9 11.41,118.36 3.8,29.47 7.13,50.87 9.98,64.17 2.85,13.31 4.28,22.82 4.28,28.52 0,36.12 -31.38,64.17 -94.12,84.13 -62.75,19.97 -119.31,29.95 -169.7,29.95 -50.39,0 -75.59,-11.41 -75.59,-34.23 0,-11.41 2.85,-25.67 8.56,-42.78 5.7,-17.11 12.36,-38.98 19.96,-65.6 19.01,-66.55 32.32,-187.76 39.93,-363.64 7.6,-175.88 11.41,-376.48 11.41,-601.8 0,-225.31 -2.85,-389.31 -8.56,-491.99 -9.51,-167.32 -26.62,-279.5 -51.34,-336.55 -5.7,-5.7 -8.56,-13.31 -8.56,-22.82 0,-30.42 50.38,-59.89 151.16,-88.41 100.77,-28.52 179.21,-42.78 235.3,-42.78 56.09,0 88.89,0.96 98.4,2.85 26.61,-1.9 42.78,13.31 48.48,45.64 55.15,199.65 132.63,434.47 232.45,704.47 46.88,126.8 91.35,239.56 133.41,338.25 47.49,111.47 91.92,205.02 133.27,280.65 9.5,9.5 17.11,14.26 22.81,14.26 9.5,0 14.26,-77.95 14.26,-233.87z"/>
    <path class="fil6" d="M6560.17 3154.19c6.18,-192.4 47.49,-796.11 -14.8,-940.61 -7.4,-18.13 -16.03,-31.72 -25.89,-40.78 -7.41,-3.63 -11.1,-10.88 -11.1,-21.75 0,-32.62 31.45,-64.33 94.35,-95.14 62.89,-30.81 108.84,-46.21 137.83,-46.21 28.98,0 44.09,10.87 45.32,32.61 0,36.25 -3.39,139.11 -10.17,308.56 -6.79,169.45 -10.18,347.52 -10.18,534.19 0,186.67 7.41,302.67 22.21,347.97 3.69,9.07 5.55,18.13 5.55,27.18 0,23.57 -23.43,35.34 -70.31,35.34 -46.87,0 -94.96,-18.12 -144.3,-54.37 -12.33,-9.06 -18.5,-38.06 -18.5,-86.99z"/>
    <path class="fil6" d="M8536.08 3146.03l20.35 -633.42c0,-150.43 -11.72,-252.83 -35.16,-307.19 -7.4,-18.12 -16.03,-31.71 -25.89,-40.77 -7.41,-3.63 -11.1,-10.88 -11.1,-21.76 0,-32.62 31.46,-64.33 94.35,-95.14 62.9,-30.81 108.84,-46.22 137.83,-46.22 28.98,0 44.09,10.88 45.32,32.62 0,36.25 -3.39,139.11 -10.17,308.56 -6.79,169.45 -10.18,347.52 -10.18,534.19 0,186.67 7.41,302.66 22.2,347.97 3.7,9.07 5.55,18.13 5.55,27.18 0,23.57 -23.43,35.34 -70.3,35.34 -46.87,0 -94.97,-18.13 -144.3,-54.37 -12.33,-9.06 -18.5,-38.06 -18.5,-86.99z"/>
    <path class="fil6" d="M11896.77 3149.34l20.35 -633.42c0,-150.43 -11.72,-252.83 -35.16,-307.19 -7.4,-18.13 -16.03,-31.71 -25.89,-40.77 -7.41,-3.63 -11.1,-10.88 -11.1,-21.76 0,-32.62 31.45,-64.33 94.34,-95.14 62.9,-30.8 108.84,-46.21 137.83,-46.21 28.98,0 44.09,10.88 45.32,32.62 0,36.25 -3.38,139.11 -10.17,308.56 -6.78,169.45 -10.18,347.51 -10.18,534.19 0,186.67 7.41,302.66 22.2,347.97 3.7,9.06 5.55,18.13 5.55,27.18 0,23.57 -23.43,35.34 -70.3,35.34 -46.87,0 -94.96,-18.13 -144.3,-54.37 -12.33,-9.07 -18.5,-38.06 -18.5,-86.99z"/>
    <path class="fil5" d="M7365.93 2677.75c-4.78,4.79 -7.18,9.87 -7.18,15.25 0,5.39 11.06,10.47 33.2,15.26 22.14,4.78 46.37,17.94 72.69,39.48 26.33,21.54 46.07,44.87 59.23,70 25.13,49.06 38.89,92.13 41.28,129.22l1.79 23.33c5.99,139.99 31.71,235.72 77.18,287.16 5.98,8.37 8.97,14.36 8.97,17.95 0,13.16 -16.75,19.74 -50.26,19.74 -100.51,0 -164.52,-20.94 -192.04,-62.82 -14.36,-16.75 -21.54,-68.8 -21.54,-156.14l0 -44.87c0,-111.27 -13.76,-188.45 -41.28,-231.53 -14.36,-20.34 -32.01,-30.51 -52.95,-30.51 -20.94,0 -42.78,18.25 -65.51,54.74 -22.73,36.49 -34.1,67.3 -34.1,92.43 0,100.51 2.39,170.5 7.18,209.99 4.78,39.48 7.18,59.82 7.18,61.02 0,34.7 -23.63,61.62 -70.89,80.76 -47.26,19.15 -91.84,28.72 -133.71,28.72 -15.56,0 -23.33,-9.57 -23.33,-28.72l0 -7.18c28.71,-147.17 43.07,-379.3 43.07,-696.37 0,-104.1 -2.39,-192.04 -7.18,-263.83l-3.59 -35.89c-2.39,-33.51 -9.28,-62.22 -20.64,-86.15 -11.37,-23.93 -22.43,-39.48 -33.2,-46.66l-14.36 -8.97c-8.37,-4.79 -12.56,-10.17 -12.56,-16.16 0,-19.14 28.72,-40.68 86.15,-64.61 57.43,-23.93 107.08,-35.9 148.97,-35.9 19.14,1.2 29.31,8.38 30.51,21.54 5.98,47.86 8.97,146.28 8.97,295.24 0,148.97 -3.59,267.72 -10.77,356.26 0,14.36 2.39,21.54 7.18,21.54 4.79,0 12.27,-6.88 22.44,-20.64 10.17,-13.75 28.11,-35.59 53.84,-65.5 25.73,-29.92 60.43,-64.62 104.1,-104.1 43.67,-39.49 78.97,-59.23 105.89,-59.23 26.92,0 53.54,6.58 79.86,19.74 26.33,13.16 39.49,25.73 39.49,37.69l-19.75 12.56c-68.2,25.13 -142.98,77.17 -224.34,156.14z"/>
    <path class="fil5" d="M8144.1 2676.96c-4.78,4.79 -7.18,9.87 -7.18,15.25 0,5.39 11.06,10.47 33.2,15.26 22.14,4.78 46.37,17.94 72.69,39.48 26.33,21.54 46.07,44.87 59.23,70 25.13,49.06 38.89,92.13 41.28,129.22l1.79 23.33c5.99,139.99 31.71,235.72 77.18,287.16 5.98,8.37 8.97,14.36 8.97,17.95 0,13.16 -16.75,19.74 -50.26,19.74 -100.51,0 -164.52,-20.94 -192.04,-62.82 -14.36,-16.75 -21.54,-68.8 -21.54,-156.14l0 -44.87c0,-111.27 -13.76,-188.45 -41.28,-231.53 -14.36,-20.34 -32.01,-30.51 -52.95,-30.51 -20.94,0 -42.78,18.25 -65.51,54.74 -22.73,36.49 -34.1,67.3 -34.1,92.43 0,100.51 2.39,170.5 7.18,209.99 4.78,39.48 7.18,59.82 7.18,61.02 0,34.7 -23.63,61.62 -70.89,80.76 -47.26,19.15 -91.84,28.72 -133.71,28.72 -15.56,0 -23.33,-9.57 -23.33,-28.72l0 -7.18c28.71,-147.17 43.07,-379.3 43.07,-696.37 0,-104.1 -2.39,-192.04 -7.18,-263.83l-3.59 -35.89c-2.39,-33.51 -9.28,-62.22 -20.64,-86.15 -11.37,-23.93 -22.43,-39.48 -33.2,-46.66l-14.36 -8.97c-8.37,-4.79 -12.56,-10.17 -12.56,-16.16 0,-19.14 28.72,-40.68 86.15,-64.61 57.43,-23.93 107.08,-35.9 148.97,-35.9 19.14,1.2 29.31,8.38 30.51,21.54 5.98,47.86 8.97,146.28 8.97,295.24 0,148.97 -3.59,267.72 -10.77,356.26 0,14.36 2.39,21.54 7.18,21.54 4.79,0 12.27,-6.88 22.44,-20.64 10.17,-13.75 28.11,-35.59 53.84,-65.5 25.73,-29.92 60.43,-64.62 104.1,-104.1 43.67,-39.49 78.97,-59.23 105.89,-59.23 26.92,0 53.54,6.58 79.86,19.74 26.33,13.16 39.49,25.73 39.49,37.69l-19.75 12.56c-68.2,25.13 -142.98,77.17 -224.34,156.14z"/>
    <path class="fil5" d="M10401.61 1671.78l11.29 -87.52c0,-86.58 -33.88,-142.11 -101.64,-166.58 -52.7,-16.94 -93.17,-25.41 -121.4,-25.41l-2.82 0c-56.46,0 -105.41,8.95 -146.81,26.82 -41.41,17.88 -71.53,40 -90.35,66.35 -39.53,54.59 -62.11,111.99 -67.76,172.22 0,71.53 32,133.17 96,184.94 64,51.76 141.63,96.93 232.93,135.52 91.29,38.59 182.58,80.46 273.87,125.64 91.29,45.17 168.94,110.11 232.93,194.81 64,84.71 95.99,186.35 95.99,304.93 0,231.52 -72.94,404.69 -218.81,519.5 -145.88,114.82 -311.52,172.22 -496.92,172.22 -185.4,0 -338.81,-41.88 -460.21,-125.64 -121.41,-83.76 -182.11,-196.22 -182.11,-337.39l0 -2.82c0,-69.64 10.82,-130.34 32.47,-182.1 21.64,-51.76 47.53,-89.88 77.64,-114.35 62.11,-50.82 118.58,-78.11 169.41,-81.88l33.88 -2.82c52.7,0 100.7,12.71 144,38.12 43.29,25.41 64.94,60.71 64.94,105.88 0,22.59 -12.23,41.41 -36.7,56.47 -24.47,15.05 -45.65,37.65 -63.53,67.76 -17.88,30.12 -27.76,55.53 -29.65,76.23l-5.65 31.06c0,114.82 52.7,191.05 158.11,228.7 37.65,13.18 67.76,19.76 90.35,19.76 103.52,0 186.81,-31.06 249.87,-93.17 63.06,-62.11 94.58,-141.16 94.58,-237.16 0,-114.82 -48.94,-207.99 -146.81,-279.52 -73.41,-52.7 -152.93,-96.93 -238.58,-132.7 -85.64,-35.76 -143.52,-61.17 -173.64,-76.23 -30.12,-15.06 -62.11,-32.94 -96,-53.65 -33.88,-20.7 -71.52,-49.88 -112.94,-87.52 -90.35,-79.06 -135.52,-185.87 -135.52,-320.45 0,-134.59 36.7,-247.99 110.11,-340.22 131.76,-167.52 329.4,-251.28 592.91,-251.28 139.29,0 256.93,26.82 352.92,80.46 96,53.65 144,127.52 144,221.64 0,67.76 -19.3,124.23 -57.88,169.4 -38.59,45.18 -88,67.76 -148.23,67.76 -28.24,0 -55.99,-5.65 -83.29,-16.94 -27.29,-11.29 -40.94,-28.24 -40.94,-50.82z"/>
    <path class="fil5" d="M10940.29 2831.89c3.19,-184.44 4.79,-336.01 4.79,-454.71 0,-118.7 -7.18,-231.92 -21.54,-339.66 0,-18.26 15.95,-27.39 47.87,-27.39 31.91,0 59.44,4.57 82.57,13.7 23.14,9.13 39.49,19.17 49.07,30.13 25.53,29.22 40.3,43.83 44.28,43.83 3.99,0 16.36,-8.22 37.1,-24.66 62.24,-45.65 131.25,-68.48 207.04,-68.48 75.79,0 142.02,21.91 198.66,65.74 56.65,43.83 96.94,101.35 120.88,172.57 43.09,122.35 64.63,252.01 64.63,388.97 0,135.13 -21.54,270.27 -64.63,405.41 -23.94,73.04 -59.04,132.85 -105.32,179.41 -46.27,46.57 -100.53,69.85 -162.76,69.85 -122.87,0 -184.3,-81.26 -184.3,-243.79 0,-43.83 7.98,-65.74 23.94,-65.74 3.19,0 12.36,4.11 27.52,12.32 15.16,8.22 29.92,12.33 44.28,12.33 113.3,0 169.94,-137.42 169.94,-412.25 0,-274.83 -60.64,-412.25 -181.92,-412.25 -33.51,0 -61.82,8.68 -84.97,26.02 -23.14,17.35 -37.9,34.24 -44.28,50.68l-9.57 27.39c-22.34,164.35 -33.51,481.19 -33.51,950.51 0,211.83 3.59,363.86 10.77,456.08 7.18,92.22 10.77,147.47 10.77,165.73 0,18.26 -4.79,34.69 -14.36,49.3 -31.91,47.49 -74.99,89.94 -129.25,127.38 -54.25,37.44 -102.13,56.15 -143.61,56.15 -15.96,0 -23.94,-11.87 -23.94,-35.61 25.53,-184.45 45.48,-590.76 59.83,-1218.95z"/>
    <path class="fil5" d="M13044.42 2933.13c0,103.49 -36.39,189.27 -109.18,257.35 -72.78,68.08 -159.56,102.12 -260.33,102.12 -147.17,0 -255.15,-50.38 -323.93,-151.14 -68.79,-100.77 -103.18,-237.38 -103.18,-409.86 0,-183.37 36,-345.86 107.98,-487.48 35.19,-72.62 85.58,-129.81 151.17,-171.56 65.58,-41.76 142.37,-62.64 230.35,-62.64 132.76,0 226.35,50.83 280.73,152.5 22.4,41.76 33.6,90.78 33.6,147.06 0,87.14 -32,152.5 -95.98,196.07 -25.59,16.34 -49.19,24.51 -70.78,24.51 -21.6,0 -39.19,-1.36 -52.79,-4.08 -13.6,-2.72 -31.6,-14.98 -54,-36.76 -22.39,-21.79 -33.59,-51.74 -33.59,-89.87 1.6,-19.97 15.19,-36.31 40.79,-49.02 23.99,-16.34 35.99,-45.39 35.99,-87.14 0,-70.81 -38.39,-106.21 -115.17,-106.21 -19.2,0 -42,9.53 -68.39,28.59 -26.39,19.06 -48.39,43.57 -65.99,73.53 -17.6,29.96 -33.99,77.16 -49.19,141.61 -15.19,64.45 -22.79,126.18 -22.79,185.18 0,59 2,103.49 6,133.44 4,29.95 12.79,70.8 26.39,122.55 13.6,51.74 39.19,93.95 76.78,126.64 37.59,32.67 84.38,49.02 140.37,49.02 67.19,0 126.37,-31.77 177.56,-95.32 20.8,-25.42 37.59,-56.28 50.39,-92.59 6.4,-14.53 14.39,-21.79 23.99,-21.79 14.39,0 25.2,14.98 32.39,44.94 7.2,29.95 10.8,56.73 10.8,80.33z"/>
    <path class="fil5" d="M13399.54 2554.59l2.4 68.09c0,10.89 6.4,16.34 19.2,16.34 51.19,-5.45 95.98,-20.43 134.36,-44.94 38.4,-24.51 67.19,-52.19 86.38,-83.06 38.4,-67.17 59.19,-125.27 62.39,-174.29l2.4 -32.68c0,-98.04 -34.4,-147.06 -103.18,-147.06 -51.18,0 -92.78,25.42 -124.77,76.25 -52.79,79.88 -79.18,187 -79.18,321.34zm523.08 362.2c0,68.99 -12.4,129.35 -37.19,181.1 -24.79,51.74 -52.79,89.87 -83.98,114.38 -31.19,24.51 -67.58,44.03 -109.18,58.55 -52.79,18.15 -103.18,27.23 -151.17,27.23 -134.36,0 -233.54,-57.19 -297.53,-171.56 -63.98,-114.38 -95.98,-260.08 -95.98,-437.09 0,-177.01 39.59,-334.51 118.77,-472.5 79.18,-137.98 197.96,-206.97 356.32,-206.97 143.97,0 241.55,57.19 292.74,171.57 20.8,43.57 31.19,84.87 31.19,123.91 0,39.04 -1.6,69.9 -4.8,92.6 -3.19,22.69 -14.39,56.73 -33.59,102.12 -19.19,45.39 -44.79,86.24 -76.78,122.55 -31.99,36.31 -82.38,70.8 -151.16,103.49 -68.79,32.68 -149.57,54.47 -242.35,65.36 -12.79,0 -19.2,6.36 -19.2,19.07 0,16.34 5.2,40.4 15.6,72.16 10.4,31.77 22,58.56 34.79,80.34 35.19,50.83 87.17,76.25 155.96,76.25 68.79,0 127.17,-25.42 175.16,-76.25 25.6,-27.23 46.39,-60.82 62.38,-100.76 6.4,-14.53 14.8,-21.79 25.2,-21.79 10.4,0 18.8,9.99 25.2,29.96 6.4,19.98 9.6,35.41 9.6,46.3z"/>
   </g>
  </g>
 </g>
</svg>
