<?xml version="1.0" encoding="UTF-8"?>
<!DOCTYPE svg PUBLIC "-//W3C//DTD SVG 1.1//EN" "http://www.w3.org/Graphics/SVG/1.1/DTD/svg11.dtd">
<!-- Creator: CorelDRAW 2021.5 (Evaluation Version) -->
<svg xmlns="http://www.w3.org/2000/svg" xml:space="preserve" width="208.295mm" height="62.1179mm" version="1.1" style="shape-rendering:geometricPrecision; text-rendering:geometricPrecision; image-rendering:optimizeQuality; fill-rule:evenodd; clip-rule:evenodd"
viewBox="0 0 13191.33 3933.92"
 xmlns:xlink="http://www.w3.org/1999/xlink"
 xmlns:xodm="http://www.corel.com/coreldraw/odm/2003">
 <defs>
  <style type="text/css">
   <![CDATA[
    .str0 {stroke:#373435;stroke-width:44.69;stroke-miterlimit:22.9256}
    .fil3 {fill:none}
    .fil6 {fill:#373435}
    .fil4 {fill:#373435}
    .fil1 {fill:red}
    .fil5 {fill:#373435;fill-rule:nonzero}
    .fil2 {fill:#373435;fill-rule:nonzero}
    .fil0 {fill:red;fill-rule:nonzero}
   ]]>
  </style>
 </defs>
 <g id="Layer_x0020_1">
  <metadata id="CorelCorpID_0Corel-Layer"/>
  <g id="_2187062931632">
   <g>
    <path class="fil0" d="M5792.02 2252.33l-2.69 -319.57c0,-316.89 -10.74,-527.25 -32.22,-631.09 -3.58,-12.53 -5.37,-22.38 -5.37,-29.54 0,-30.44 30.43,-56.4 91.3,-77.88 60.87,-21.49 109.21,-32.23 145.02,-32.23 35.81,0 53.71,10.74 53.71,32.23 0,1.79 -1.79,11.63 -5.38,29.54 -41.18,220.21 -61.77,570.22 -61.77,1050.03 0,327.62 18.8,563.05 56.4,706.28 7.16,23.27 10.75,35.81 10.75,37.6 0,37.59 -41.18,68.48 -123.54,92.65 -82.35,24.17 -140.54,36.26 -174.56,36.26 -53.71,0 -90.41,-12.53 -110.11,-37.6 -39.38,-50.13 -103.39,-191.12 -192.01,-422.96 -88.62,-231.85 -166.05,-448.03 -232.29,-648.54l-102.05 -300.78c-3.58,-8.95 -8.06,-13.43 -13.43,-13.43 -7.16,0 -15.22,6.26 -24.17,18.8 -8.95,166.5 -13.43,333 -13.43,499.5 0,166.5 1.34,294.51 4.03,384.03 2.69,89.52 5.82,157.55 9.4,204.09 3.58,46.55 7.16,83.7 10.74,111.45 3.58,27.75 6.71,47.9 9.4,60.42 2.69,12.53 4.03,21.49 4.03,26.86 0,34.01 -29.54,60.42 -88.62,79.22 -59.08,18.8 -112.34,28.2 -159.78,28.2 -47.45,0 -71.17,-10.74 -71.17,-32.23 0,-10.74 2.69,-24.17 8.06,-40.28 5.37,-16.11 11.63,-36.7 18.8,-61.77 17.9,-62.66 30.44,-176.79 37.6,-342.4 7.16,-165.6 10.74,-354.48 10.74,-566.64 0,-212.15 -2.69,-366.57 -8.06,-463.25 -8.95,-157.55 -25.07,-263.17 -48.34,-316.88 -5.37,-5.37 -8.06,-12.53 -8.06,-21.49 0,-28.64 47.44,-56.4 142.33,-83.25 94.89,-26.85 168.74,-40.28 221.55,-40.28 52.82,0 83.7,0.9 92.65,2.69 25.06,-1.79 40.28,12.53 45.65,42.97 51.92,187.98 124.88,409.09 218.87,663.32 93.99,254.23 177.69,448.48 251.1,582.75 8.95,8.95 16.11,13.43 21.48,13.43 8.95,0 13.43,-73.4 13.43,-220.21z"/>
    <path class="fil1" d="M6236.41 3006.89l19.16 -596.42c0,-141.63 -11.03,-238.05 -33.1,-289.24 -6.97,-17.07 -15.1,-29.87 -24.38,-38.4 -6.97,-3.42 -10.46,-10.24 -10.46,-20.48 0,-30.72 29.61,-60.58 88.84,-89.59 59.22,-29.01 102.48,-43.51 129.78,-43.51 27.29,0 41.51,10.23 42.67,30.71 0,34.13 -3.19,130.98 -9.58,290.53 -6.39,159.55 -9.59,327.21 -9.59,502.98 0,175.77 6.97,284.98 20.91,327.64 3.48,8.54 5.22,17.07 5.22,25.59 0,22.19 -22.06,33.28 -66.2,33.28 -44.13,0 -89.42,-17.06 -135.87,-51.19 -11.61,-8.53 -17.42,-35.83 -17.42,-81.91z"/>
    <path class="fil1" d="M8096.89 2999.2l19.16 -596.42c0,-141.64 -11.03,-238.06 -33.1,-289.25 -6.97,-17.06 -15.09,-29.86 -24.38,-38.39 -6.97,-3.42 -10.46,-10.24 -10.46,-20.49 0,-30.72 29.62,-60.58 88.84,-89.58 59.23,-29.01 102.48,-43.52 129.78,-43.52 27.29,0 41.51,10.24 42.67,30.72 0,34.13 -3.19,130.98 -9.58,290.53 -6.39,159.55 -9.58,327.21 -9.58,502.98 0,175.77 6.97,284.98 20.91,327.64 3.48,8.54 5.22,17.07 5.22,25.59 0,22.19 -22.06,33.28 -66.19,33.28 -44.13,0 -89.42,-17.07 -135.87,-51.19 -11.61,-8.53 -17.42,-35.84 -17.42,-81.91z"/>
    <path class="fil1" d="M11261.24 3002.32l19.16 -596.42c0,-141.64 -11.03,-238.06 -33.1,-289.25 -6.97,-17.07 -15.09,-29.86 -24.38,-38.39 -6.97,-3.42 -10.45,-10.24 -10.45,-20.49 0,-30.72 29.61,-60.58 88.83,-89.59 59.23,-29.01 102.48,-43.51 129.78,-43.51 27.29,0 41.51,10.24 42.67,30.72 0,34.13 -3.19,130.98 -9.58,290.53 -6.38,159.55 -9.58,327.21 -9.58,502.98 0,175.77 6.97,284.98 20.91,327.64 3.48,8.53 5.22,17.07 5.22,25.59 0,22.19 -22.06,33.28 -66.19,33.28 -44.13,0 -89.42,-17.07 -135.87,-51.19 -11.61,-8.54 -17.42,-35.84 -17.42,-81.91z"/>
    <path class="fil0" d="M6995.1 2558.28c-4.5,4.51 -6.76,9.3 -6.76,14.36 0,5.07 10.42,9.86 31.26,14.37 20.84,4.5 43.66,16.9 68.44,37.17 24.79,20.28 43.37,42.25 55.77,65.91 23.66,46.19 36.62,86.75 38.87,121.67l1.68 21.97c5.64,131.81 29.86,221.95 72.67,270.39 5.63,7.88 8.45,13.52 8.45,16.9 0,12.39 -15.78,18.59 -47.32,18.59 -94.63,0 -154.9,-19.71 -180.82,-59.15 -13.52,-15.77 -20.28,-64.78 -20.28,-147.02l0 -42.25c0,-104.77 -12.96,-177.44 -38.87,-218 -13.52,-19.15 -30.14,-28.73 -49.85,-28.73 -19.71,0 -40.28,17.18 -61.68,51.54 -21.41,34.36 -32.11,63.37 -32.11,87.03 0,94.63 2.25,160.54 6.76,197.72 4.5,37.17 6.76,56.33 6.76,57.45 0,32.67 -22.25,58.02 -66.75,76.05 -44.5,18.03 -86.47,27.04 -125.9,27.04 -14.65,0 -21.97,-9.01 -21.97,-27.04l0 -6.76c27.04,-138.57 40.56,-357.14 40.56,-655.69 0,-98.02 -2.25,-180.82 -6.76,-248.42l-3.38 -33.79c-2.25,-31.55 -8.73,-58.59 -19.44,-81.12 -10.7,-22.53 -21.12,-37.17 -31.26,-43.94l-13.52 -8.45c-7.88,-4.51 -11.83,-9.58 -11.83,-15.21 0,-18.02 27.04,-38.3 81.12,-60.83 54.08,-22.53 100.83,-33.8 140.26,-33.8 18.02,1.13 27.6,7.89 28.73,20.28 5.63,45.07 8.45,137.73 8.45,277.99 0,140.26 -3.38,252.08 -10.14,335.45 0,13.52 2.25,20.28 6.76,20.28 4.51,0 11.55,-6.48 21.13,-19.44 9.58,-12.95 26.47,-33.51 50.7,-61.68 24.22,-28.17 56.9,-60.84 98.02,-98.02 41.12,-37.18 74.36,-55.77 99.71,-55.77 25.34,0 50.41,6.2 75.2,18.59 24.79,12.39 37.18,24.22 37.18,35.49l-18.59 11.83c-64.22,23.66 -134.63,72.66 -211.24,147.02z"/>
    <path class="fil0" d="M7727.8 2557.54c-4.5,4.51 -6.76,9.3 -6.76,14.36 0,5.07 10.42,9.86 31.26,14.37 20.84,4.5 43.66,16.9 68.44,37.17 24.79,20.28 43.37,42.25 55.77,65.91 23.66,46.19 36.62,86.75 38.87,121.67l1.68 21.97c5.64,131.81 29.86,221.95 72.67,270.39 5.63,7.88 8.45,13.52 8.45,16.9 0,12.39 -15.78,18.59 -47.32,18.59 -94.63,0 -154.9,-19.71 -180.82,-59.15 -13.52,-15.77 -20.28,-64.78 -20.28,-147.02l0 -42.25c0,-104.77 -12.96,-177.44 -38.87,-218 -13.52,-19.15 -30.14,-28.73 -49.85,-28.73 -19.71,0 -40.28,17.18 -61.68,51.54 -21.41,34.36 -32.11,63.37 -32.11,87.03 0,94.63 2.25,160.54 6.76,197.72 4.5,37.17 6.76,56.33 6.76,57.45 0,32.67 -22.25,58.02 -66.75,76.05 -44.5,18.03 -86.47,27.04 -125.9,27.04 -14.65,0 -21.97,-9.01 -21.97,-27.04l0 -6.76c27.04,-138.57 40.56,-357.14 40.56,-655.69 0,-98.02 -2.25,-180.82 -6.76,-248.42l-3.38 -33.79c-2.25,-31.55 -8.73,-58.59 -19.44,-81.12 -10.7,-22.53 -21.12,-37.17 -31.26,-43.94l-13.52 -8.45c-7.88,-4.51 -11.83,-9.58 -11.83,-15.21 0,-18.02 27.04,-38.3 81.12,-60.83 54.08,-22.53 100.83,-33.8 140.26,-33.8 18.02,1.13 27.6,7.89 28.73,20.28 5.63,45.07 8.45,137.73 8.45,277.99 0,140.26 -3.38,252.08 -10.14,335.45 0,13.52 2.25,20.28 6.76,20.28 4.51,0 11.55,-6.48 21.13,-19.44 9.58,-12.95 26.47,-33.51 50.7,-61.68 24.22,-28.17 56.9,-60.84 98.02,-98.02 41.12,-37.18 74.36,-55.77 99.71,-55.77 25.34,0 50.41,6.2 75.2,18.59 24.79,12.39 37.18,24.22 37.18,35.49l-18.59 11.83c-64.22,23.66 -134.63,72.66 -211.24,147.02z"/>
    <path class="fil0" d="M9853.43 1611.08l10.63 -82.41c0,-81.52 -31.9,-133.81 -95.7,-156.85 -49.63,-15.95 -87.72,-23.93 -114.31,-23.93l-2.66 0c-53.17,0 -99.25,8.42 -138.24,25.26 -38.99,16.84 -67.35,37.66 -85.07,62.47 -37.22,51.4 -58.49,105.45 -63.8,162.16 0,67.35 30.13,125.39 90.39,174.13 60.26,48.73 133.36,91.27 219.32,127.6 85.96,36.33 171.92,75.76 257.87,118.3 85.96,42.53 159.07,103.68 219.32,183.43 60.26,79.76 90.38,175.46 90.38,287.11 0,217.99 -68.67,381.04 -206.02,489.15 -137.36,108.11 -293.32,162.16 -467.89,162.16 -174.57,0 -319.01,-39.43 -433.32,-118.3 -114.32,-78.86 -171.47,-184.76 -171.47,-317.68l0 -2.66c0,-65.57 10.19,-122.73 30.58,-171.47 20.38,-48.74 44.75,-84.63 73.1,-107.67 58.49,-47.85 111.66,-73.55 159.51,-77.1l31.9 -2.66c49.63,0 94.82,11.96 135.58,35.89 40.76,23.93 61.15,57.16 61.15,99.69 0,21.27 -11.52,38.99 -34.56,53.17 -23.04,14.17 -42.98,35.45 -59.82,63.8 -16.84,28.36 -26.14,52.29 -27.92,71.78l-5.32 29.25c0,108.11 49.63,179.89 148.88,215.33 35.45,12.41 63.8,18.61 85.07,18.61 97.47,0 175.9,-29.25 235.27,-87.73 59.37,-58.49 89.05,-132.92 89.05,-223.31 0,-108.11 -46.08,-195.84 -138.24,-263.19 -69.12,-49.62 -144,-91.27 -224.64,-124.94 -80.64,-33.67 -135.14,-57.6 -163.49,-71.78 -28.36,-14.18 -58.49,-31.01 -90.39,-50.51 -31.9,-19.49 -67.35,-46.97 -106.34,-82.41 -85.07,-74.44 -127.6,-175.01 -127.6,-301.73 0,-126.72 34.56,-233.5 103.68,-320.34 124.06,-157.74 310.15,-236.6 558.27,-236.6 131.15,0 241.92,25.25 332.3,75.76 90.39,50.51 135.58,120.07 135.58,208.69 0,63.8 -18.17,116.97 -54.5,159.5 -36.33,42.54 -82.85,63.8 -139.57,63.8 -26.59,0 -52.72,-5.32 -78.42,-15.95 -25.7,-10.63 -38.55,-26.59 -38.55,-47.85z"/>
    <path class="fil0" d="M10360.64 2703.42c3.01,-173.66 4.51,-316.38 4.51,-428.15 0,-111.76 -6.76,-218.37 -20.28,-319.82 0,-17.19 15.02,-25.79 45.07,-25.79 30.05,0 55.97,4.3 77.75,12.9 21.79,8.59 37.19,18.05 46.21,28.37 24.04,27.51 37.94,41.27 41.7,41.27 3.76,0 15.4,-7.74 34.93,-23.22 58.6,-42.98 123.58,-64.48 194.95,-64.48 71.37,0 133.73,20.63 187.06,61.9 53.34,41.27 91.28,95.43 113.82,162.49 40.57,115.2 60.85,237.28 60.85,366.24 0,127.24 -20.28,254.48 -60.85,381.72 -22.54,68.78 -55.59,125.09 -99.17,168.93 -43.56,43.85 -94.65,65.77 -153.25,65.77 -115.69,0 -173.54,-76.52 -173.54,-229.55 0,-41.27 7.51,-61.9 22.54,-61.9 3,0 11.64,3.87 25.91,11.6 14.27,7.74 28.17,11.61 41.7,11.61 106.68,0 160.02,-129.39 160.02,-388.17 0,-258.78 -57.1,-388.17 -171.29,-388.17 -31.55,0 -58.21,8.17 -80,24.5 -21.79,16.34 -35.69,32.24 -41.7,47.72l-9.01 25.79c-21.04,154.75 -31.55,453.08 -31.55,894.98 0,199.46 3.38,342.6 10.14,429.43 6.76,86.83 10.14,138.85 10.14,156.04 0,17.19 -4.51,32.67 -13.52,46.42 -30.05,44.71 -70.61,84.68 -121.7,119.93 -51.08,35.25 -96.16,52.87 -135.22,52.87 -15.03,0 -22.54,-11.18 -22.54,-33.53 24.04,-173.67 42.82,-556.25 56.34,-1147.74z"/>
    <path class="fil0" d="M12341.84 2798.75c0,97.44 -34.27,178.21 -102.8,242.32 -68.53,64.1 -150.24,96.15 -245.12,96.15 -138.57,0 -240.24,-47.43 -305,-142.31 -64.77,-94.88 -97.15,-223.52 -97.15,-385.91 0,-172.66 33.89,-325.66 101.67,-459 33.13,-68.38 80.58,-122.23 142.33,-161.54 61.75,-39.32 134.05,-58.98 216.89,-58.98 125.01,0 213.12,47.86 264.33,143.59 21.09,39.32 31.63,85.48 31.63,138.47 0,82.05 -30.13,143.59 -90.37,184.62 -24.1,15.39 -46.32,23.08 -66.65,23.08 -20.34,0 -36.9,-1.28 -49.7,-3.84 -12.81,-2.56 -29.75,-14.1 -50.84,-34.62 -21.08,-20.51 -31.63,-48.72 -31.63,-84.62 1.51,-18.8 14.31,-34.19 38.41,-46.15 22.59,-15.38 33.89,-42.74 33.89,-82.05 0,-66.67 -36.15,-100 -108.44,-100 -18.08,0 -39.54,8.97 -64.39,26.92 -24.85,17.95 -45.56,41.03 -62.13,69.23 -16.57,28.21 -32.01,72.65 -46.31,133.34 -14.31,60.68 -21.46,118.81 -21.46,174.37 0,55.55 1.88,97.44 5.65,125.65 3.77,28.2 12.05,66.67 24.85,115.39 12.81,48.72 36.9,88.47 72.3,119.24 35.4,30.77 79.45,46.15 132.17,46.15 63.26,0 118.98,-29.92 167.18,-89.75 19.58,-23.93 35.4,-52.99 47.45,-87.18 6.02,-13.68 13.55,-20.51 22.59,-20.51 13.55,0 23.72,14.1 30.5,42.31 6.78,28.2 10.17,53.42 10.17,75.64z"/>
    <path class="fil0" d="M12676.22 2442.32l2.26 64.11c0,10.25 6.03,15.38 18.07,15.38 48.2,-5.13 90.37,-19.23 126.51,-42.31 36.16,-23.08 63.26,-49.14 81.33,-78.21 36.16,-63.25 55.73,-117.95 58.74,-164.11l2.26 -30.77c0,-92.31 -32.39,-138.46 -97.15,-138.46 -48.19,0 -87.36,23.93 -117.48,71.8 -49.71,75.22 -74.56,176.08 -74.56,302.57zm492.52 341.04c0,64.96 -11.68,121.8 -35.02,170.52 -23.34,48.72 -49.7,84.62 -79.07,107.7 -29.37,23.08 -63.63,41.46 -102.8,55.13 -49.7,17.09 -97.15,25.64 -142.33,25.64 -126.51,0 -219.9,-53.85 -280.15,-161.54 -60.25,-107.7 -90.37,-244.88 -90.37,-411.56 0,-166.67 37.28,-314.97 111.83,-444.89 74.56,-129.91 186.39,-194.88 335.5,-194.88 135.56,0 227.44,53.85 275.64,161.55 19.58,41.03 29.37,79.92 29.37,116.67 0,36.76 -1.51,65.82 -4.52,87.19 -3,21.37 -13.55,53.42 -31.63,96.15 -18.07,42.74 -42.17,81.2 -72.3,115.39 -30.12,34.19 -77.57,66.67 -142.33,97.44 -64.77,30.77 -140.83,51.28 -228.19,61.54 -12.05,0 -18.07,5.98 -18.07,17.95 0,15.38 4.9,38.04 14.69,67.95 9.79,29.92 20.72,55.14 32.76,75.65 33.13,47.86 82.08,71.8 146.85,71.8 64.77,0 119.74,-23.93 164.93,-71.8 24.1,-25.64 43.68,-57.27 58.74,-94.87 6.03,-13.68 13.93,-20.52 23.72,-20.52 9.79,0 17.7,9.4 23.72,28.21 6.02,18.81 9.04,33.34 9.04,43.6z"/>
   </g>
   <g>
    <path class="fil1" d="M2661.78 3539.97c126.5,-868.77 822.65,-1287.52 729.51,-269.49 -218.53,139.19 -464.98,222.43 -729.51,269.49z"/>
    <path class="fil2" d="M2908.99 2776.16c-47.45,-21.11 -85.29,-11.43 -106.19,-26.03 -20.91,-14.6 -36.16,-37.29 -19.18,-61.56 16.95,-24.27 43.48,-17.76 64.39,-3.15 20.9,14.6 24.83,53.47 60.98,90.75z"/>
    <path class="fil2" d="M3202.18 2601.68c-22.11,-68.81 -18.18,-131.36 -5.13,-168.39 13.07,-37.07 40.47,-69.05 83.49,-53.89 43.03,15.17 44.31,57.27 31.23,94.34 -13.05,37.04 -60.58,71.75 -109.59,127.95z"/>
    <path class="fil2" d="M3391.2 2709.75c-27.74,-56.4 -2.43,-80.19 7.81,-101.63 10.27,-21.46 28.82,-38.93 53.72,-27.02 24.9,11.92 22.95,37.32 12.68,58.78 -10.26,21.43 -49.53,25.87 -74.22,69.87z"/>
    <path class="fil3 str0" d="M982.5 2981.43c987.14,719.34 1943.27,823.81 2866.16,-50.44"/>
    <path class="fil3 str0" d="M1215.5 1624.36c219.68,276.87 603.04,271.59 849.29,12.81"/>
    <path class="fil3 str0" d="M2723.28 1634.01c219.68,276.87 603.04,271.59 849.29,12.81"/>
    <path class="fil4" d="M2136.96 0c-1180.22,0 -2136.96,965.79 -2136.96,2157.16 0,736.98 366.11,1387.64 924.77,1776.76 -480.4,-395.56 -787.17,-997.85 -787.17,-1672.45 0,-1191.37 956.74,-2157.16 2136.96,-2157.16 450.14,0 867.76,140.48 1212.2,380.4 -368,-303.01 -837.87,-484.71 -1349.8,-484.71z"/>
   </g>
   <g>
    <path class="fil5" d="M5732.52 2215.36l-2.69 -319.57c0,-316.89 -10.74,-527.25 -32.22,-631.09 -3.58,-12.53 -5.37,-22.38 -5.37,-29.54 0,-30.44 30.43,-56.4 91.3,-77.88 60.87,-21.49 109.21,-32.23 145.02,-32.23 35.81,0 53.71,10.74 53.71,32.23 0,1.79 -1.79,11.63 -5.38,29.54 -41.18,220.21 -61.77,570.22 -61.77,1050.03 0,327.62 18.8,563.05 56.4,706.28 7.16,23.27 10.75,35.81 10.75,37.6 0,37.59 -41.18,68.48 -123.54,92.65 -82.35,24.17 -140.54,36.26 -174.56,36.26 -53.71,0 -90.41,-12.53 -110.11,-37.6 -39.38,-50.13 -103.39,-191.12 -192.01,-422.96 -88.62,-231.85 -166.05,-448.03 -232.29,-648.54l-102.05 -300.78c-3.58,-8.95 -8.06,-13.43 -13.43,-13.43 -7.16,0 -15.22,6.26 -24.17,18.8 -8.95,166.5 -13.43,333 -13.43,499.5 0,166.5 1.34,294.51 4.03,384.03 2.69,89.52 5.82,157.55 9.4,204.09 3.58,46.55 7.16,83.7 10.74,111.45 3.58,27.75 6.71,47.9 9.4,60.42 2.69,12.53 4.03,21.49 4.03,26.86 0,34.01 -29.54,60.42 -88.62,79.22 -59.08,18.8 -112.34,28.2 -159.78,28.2 -47.45,0 -71.17,-10.74 -71.17,-32.23 0,-10.74 2.69,-24.17 8.06,-40.28 5.37,-16.11 11.63,-36.7 18.8,-61.77 17.9,-62.66 30.44,-176.79 37.6,-342.4 7.16,-165.6 10.74,-354.48 10.74,-566.64 0,-212.15 -2.69,-366.57 -8.06,-463.25 -8.95,-157.55 -25.07,-263.17 -48.34,-316.88 -5.37,-5.37 -8.06,-12.53 -8.06,-21.49 0,-28.64 47.44,-56.4 142.33,-83.25 94.89,-26.85 168.74,-40.28 221.55,-40.28 52.82,0 83.7,0.9 92.65,2.69 25.06,-1.79 40.28,12.53 45.65,42.97 51.92,187.98 124.88,409.09 218.87,663.32 44.14,119.39 86.01,225.56 125.61,318.49 44.72,104.96 86.55,193.04 125.48,264.26 8.95,8.95 16.11,13.43 21.48,13.43 8.95,0 13.43,-73.4 13.43,-220.21z"/>
    <path class="fil6" d="M6176.92 2969.92c5.82,-181.16 44.71,-749.6 -13.94,-885.66 -6.97,-17.07 -15.1,-29.87 -24.38,-38.4 -6.97,-3.42 -10.46,-10.24 -10.46,-20.48 0,-30.72 29.61,-60.58 88.84,-89.59 59.22,-29.01 102.48,-43.51 129.78,-43.51 27.29,0 41.51,10.23 42.67,30.71 0,34.13 -3.19,130.98 -9.58,290.53 -6.39,159.55 -9.59,327.21 -9.59,502.98 0,175.77 6.97,284.98 20.91,327.64 3.48,8.54 5.22,17.07 5.22,25.59 0,22.19 -22.06,33.28 -66.2,33.28 -44.13,0 -89.42,-17.06 -135.87,-51.19 -11.61,-8.53 -17.42,-35.83 -17.42,-81.91z"/>
    <path class="fil6" d="M8037.4 2962.23l19.16 -596.42c0,-141.64 -11.03,-238.06 -33.1,-289.25 -6.97,-17.06 -15.09,-29.86 -24.38,-38.39 -6.97,-3.42 -10.46,-10.24 -10.46,-20.49 0,-30.72 29.62,-60.58 88.84,-89.58 59.23,-29.01 102.48,-43.52 129.78,-43.52 27.29,0 41.51,10.24 42.67,30.72 0,34.13 -3.19,130.98 -9.58,290.53 -6.39,159.55 -9.58,327.21 -9.58,502.98 0,175.77 6.97,284.98 20.91,327.64 3.48,8.54 5.22,17.07 5.22,25.59 0,22.19 -22.06,33.28 -66.19,33.28 -44.13,0 -89.42,-17.07 -135.87,-51.19 -11.61,-8.53 -17.42,-35.84 -17.42,-81.91z"/>
    <path class="fil6" d="M11201.75 2965.35l19.16 -596.42c0,-141.64 -11.03,-238.06 -33.1,-289.25 -6.97,-17.07 -15.09,-29.86 -24.38,-38.39 -6.97,-3.42 -10.45,-10.24 -10.45,-20.49 0,-30.72 29.61,-60.58 88.83,-89.59 59.23,-29.01 102.48,-43.51 129.78,-43.51 27.29,0 41.51,10.24 42.67,30.72 0,34.13 -3.19,130.98 -9.58,290.53 -6.38,159.55 -9.58,327.21 -9.58,502.98 0,175.77 6.97,284.98 20.91,327.64 3.48,8.53 5.22,17.07 5.22,25.59 0,22.19 -22.06,33.28 -66.19,33.28 -44.13,0 -89.42,-17.07 -135.87,-51.19 -11.61,-8.54 -17.42,-35.84 -17.42,-81.91z"/>
    <path class="fil5" d="M6935.61 2521.31c-4.5,4.51 -6.76,9.3 -6.76,14.36 0,5.07 10.42,9.86 31.26,14.37 20.84,4.5 43.66,16.9 68.44,37.17 24.79,20.28 43.37,42.25 55.77,65.91 23.66,46.19 36.62,86.75 38.87,121.67l1.68 21.97c5.64,131.81 29.86,221.95 72.67,270.39 5.63,7.88 8.45,13.52 8.45,16.9 0,12.39 -15.78,18.59 -47.32,18.59 -94.63,0 -154.9,-19.71 -180.82,-59.15 -13.52,-15.77 -20.28,-64.78 -20.28,-147.02l0 -42.25c0,-104.77 -12.96,-177.44 -38.87,-218 -13.52,-19.15 -30.14,-28.73 -49.85,-28.73 -19.71,0 -40.28,17.18 -61.68,51.54 -21.41,34.36 -32.11,63.37 -32.11,87.03 0,94.63 2.25,160.54 6.76,197.72 4.5,37.17 6.76,56.33 6.76,57.45 0,32.67 -22.25,58.02 -66.75,76.05 -44.5,18.03 -86.47,27.04 -125.9,27.04 -14.65,0 -21.97,-9.01 -21.97,-27.04l0 -6.76c27.04,-138.57 40.56,-357.14 40.56,-655.69 0,-98.02 -2.25,-180.82 -6.76,-248.42l-3.38 -33.79c-2.25,-31.55 -8.73,-58.59 -19.44,-81.12 -10.7,-22.53 -21.12,-37.17 -31.26,-43.94l-13.52 -8.45c-7.88,-4.51 -11.83,-9.58 -11.83,-15.21 0,-18.02 27.04,-38.3 81.12,-60.83 54.08,-22.53 100.83,-33.8 140.26,-33.8 18.02,1.13 27.6,7.89 28.73,20.28 5.63,45.07 8.45,137.73 8.45,277.99 0,140.26 -3.38,252.08 -10.14,335.45 0,13.52 2.25,20.28 6.76,20.28 4.51,0 11.55,-6.48 21.13,-19.44 9.58,-12.95 26.47,-33.51 50.7,-61.68 24.22,-28.17 56.9,-60.84 98.02,-98.02 41.12,-37.18 74.36,-55.77 99.71,-55.77 25.34,0 50.41,6.2 75.2,18.59 24.79,12.39 37.18,24.22 37.18,35.49l-18.59 11.83c-64.22,23.66 -134.63,72.66 -211.24,147.02z"/>
    <path class="fil5" d="M7668.31 2520.57c-4.5,4.51 -6.76,9.3 -6.76,14.36 0,5.07 10.42,9.86 31.26,14.37 20.84,4.5 43.66,16.9 68.44,37.17 24.79,20.28 43.37,42.25 55.77,65.91 23.66,46.19 36.62,86.75 38.87,121.67l1.68 21.97c5.64,131.81 29.86,221.95 72.67,270.39 5.63,7.88 8.45,13.52 8.45,16.9 0,12.39 -15.78,18.59 -47.32,18.59 -94.63,0 -154.9,-19.71 -180.82,-59.15 -13.52,-15.77 -20.28,-64.78 -20.28,-147.02l0 -42.25c0,-104.77 -12.96,-177.44 -38.87,-218 -13.52,-19.15 -30.14,-28.73 -49.85,-28.73 -19.71,0 -40.28,17.18 -61.68,51.54 -21.41,34.36 -32.11,63.37 -32.11,87.03 0,94.63 2.25,160.54 6.76,197.72 4.5,37.17 6.76,56.33 6.76,57.45 0,32.67 -22.25,58.02 -66.75,76.05 -44.5,18.03 -86.47,27.04 -125.9,27.04 -14.65,0 -21.97,-9.01 -21.97,-27.04l0 -6.76c27.04,-138.57 40.56,-357.14 40.56,-655.69 0,-98.02 -2.25,-180.82 -6.76,-248.42l-3.38 -33.79c-2.25,-31.55 -8.73,-58.59 -19.44,-81.12 -10.7,-22.53 -21.12,-37.17 -31.26,-43.94l-13.52 -8.45c-7.88,-4.51 -11.83,-9.58 -11.83,-15.21 0,-18.02 27.04,-38.3 81.12,-60.83 54.08,-22.53 100.83,-33.8 140.26,-33.8 18.02,1.13 27.6,7.89 28.73,20.28 5.63,45.07 8.45,137.73 8.45,277.99 0,140.26 -3.38,252.08 -10.14,335.45 0,13.52 2.25,20.28 6.76,20.28 4.51,0 11.55,-6.48 21.13,-19.44 9.58,-12.95 26.47,-33.51 50.7,-61.68 24.22,-28.17 56.9,-60.84 98.02,-98.02 41.12,-37.18 74.36,-55.77 99.71,-55.77 25.34,0 50.41,6.2 75.2,18.59 24.79,12.39 37.18,24.22 37.18,35.49l-18.59 11.83c-64.22,23.66 -134.63,72.66 -211.24,147.02z"/>
    <path class="fil5" d="M9793.94 1574.11l10.63 -82.41c0,-81.52 -31.9,-133.81 -95.7,-156.85 -49.63,-15.95 -87.72,-23.93 -114.31,-23.93l-2.66 0c-53.17,0 -99.25,8.42 -138.24,25.26 -38.99,16.84 -67.35,37.66 -85.07,62.47 -37.22,51.4 -58.49,105.45 -63.8,162.16 0,67.35 30.13,125.39 90.39,174.13 60.26,48.73 133.36,91.27 219.32,127.6 85.96,36.33 171.92,75.76 257.87,118.3 85.96,42.53 159.07,103.68 219.32,183.43 60.26,79.76 90.38,175.46 90.38,287.11 0,217.99 -68.67,381.04 -206.02,489.15 -137.36,108.11 -293.32,162.16 -467.89,162.16 -174.57,0 -319.01,-39.43 -433.32,-118.3 -114.32,-78.86 -171.47,-184.76 -171.47,-317.68l0 -2.66c0,-65.57 10.19,-122.73 30.58,-171.47 20.38,-48.74 44.75,-84.63 73.1,-107.67 58.49,-47.85 111.66,-73.55 159.51,-77.1l31.9 -2.66c49.63,0 94.82,11.96 135.58,35.89 40.76,23.93 61.15,57.16 61.15,99.69 0,21.27 -11.52,38.99 -34.56,53.17 -23.04,14.17 -42.98,35.45 -59.82,63.8 -16.84,28.36 -26.14,52.29 -27.92,71.78l-5.32 29.25c0,108.11 49.63,179.89 148.88,215.33 35.45,12.41 63.8,18.61 85.07,18.61 97.47,0 175.9,-29.25 235.27,-87.73 59.37,-58.49 89.05,-132.92 89.05,-223.31 0,-108.11 -46.08,-195.84 -138.24,-263.19 -69.12,-49.62 -144,-91.27 -224.64,-124.94 -80.64,-33.67 -135.14,-57.6 -163.49,-71.78 -28.36,-14.18 -58.49,-31.01 -90.39,-50.51 -31.9,-19.49 -67.35,-46.97 -106.34,-82.41 -85.07,-74.44 -127.6,-175.01 -127.6,-301.73 0,-126.72 34.56,-233.5 103.68,-320.34 124.06,-157.74 310.15,-236.6 558.27,-236.6 131.15,0 241.92,25.25 332.3,75.76 90.39,50.51 135.58,120.07 135.58,208.69 0,63.8 -18.17,116.97 -54.5,159.5 -36.33,42.54 -82.85,63.8 -139.57,63.8 -26.59,0 -52.72,-5.32 -78.42,-15.95 -25.7,-10.63 -38.55,-26.59 -38.55,-47.85z"/>
    <path class="fil5" d="M10301.14 2666.45c3.01,-173.66 4.51,-316.38 4.51,-428.15 0,-111.76 -6.76,-218.37 -20.28,-319.82 0,-17.19 15.02,-25.79 45.07,-25.79 30.05,0 55.97,4.3 77.75,12.9 21.79,8.59 37.19,18.05 46.21,28.37 24.04,27.51 37.94,41.27 41.7,41.27 3.76,0 15.4,-7.74 34.93,-23.22 58.6,-42.98 123.58,-64.48 194.95,-64.48 71.37,0 133.73,20.63 187.06,61.9 53.34,41.27 91.28,95.43 113.82,162.49 40.57,115.2 60.85,237.28 60.85,366.24 0,127.24 -20.28,254.48 -60.85,381.72 -22.54,68.78 -55.59,125.09 -99.17,168.93 -43.56,43.85 -94.65,65.77 -153.25,65.77 -115.69,0 -173.54,-76.52 -173.54,-229.55 0,-41.27 7.51,-61.9 22.54,-61.9 3,0 11.64,3.87 25.91,11.6 14.27,7.74 28.17,11.61 41.7,11.61 106.68,0 160.02,-129.39 160.02,-388.17 0,-258.78 -57.1,-388.17 -171.29,-388.17 -31.55,0 -58.21,8.17 -80,24.5 -21.79,16.34 -35.69,32.24 -41.7,47.72l-9.01 25.79c-21.04,154.75 -31.55,453.08 -31.55,894.98 0,199.46 3.38,342.6 10.14,429.43 6.76,86.83 10.14,138.85 10.14,156.04 0,17.19 -4.51,32.67 -13.52,46.42 -30.05,44.71 -70.61,84.68 -121.7,119.93 -51.08,35.25 -96.16,52.87 -135.22,52.87 -15.03,0 -22.54,-11.18 -22.54,-33.53 24.04,-173.67 42.82,-556.25 56.34,-1147.74z"/>
    <path class="fil5" d="M12282.35 2761.77c0,97.44 -34.27,178.21 -102.8,242.32 -68.53,64.1 -150.24,96.15 -245.12,96.15 -138.57,0 -240.24,-47.43 -305,-142.31 -64.77,-94.88 -97.15,-223.52 -97.15,-385.91 0,-172.66 33.89,-325.66 101.67,-459 33.13,-68.38 80.58,-122.23 142.33,-161.54 61.75,-39.32 134.05,-58.98 216.89,-58.98 125.01,0 213.12,47.86 264.33,143.59 21.09,39.32 31.63,85.48 31.63,138.47 0,82.05 -30.13,143.59 -90.37,184.62 -24.1,15.39 -46.32,23.08 -66.65,23.08 -20.34,0 -36.9,-1.28 -49.7,-3.84 -12.81,-2.56 -29.75,-14.1 -50.84,-34.62 -21.08,-20.51 -31.63,-48.72 -31.63,-84.62 1.51,-18.8 14.31,-34.19 38.41,-46.15 22.59,-15.38 33.89,-42.74 33.89,-82.05 0,-66.67 -36.15,-100 -108.44,-100 -18.08,0 -39.54,8.97 -64.39,26.92 -24.85,17.95 -45.56,41.03 -62.13,69.23 -16.57,28.21 -32.01,72.65 -46.31,133.34 -14.31,60.68 -21.46,118.81 -21.46,174.37 0,55.55 1.88,97.44 5.65,125.65 3.77,28.2 12.05,66.67 24.85,115.39 12.81,48.72 36.9,88.47 72.3,119.24 35.4,30.77 79.45,46.15 132.17,46.15 63.26,0 118.98,-29.92 167.18,-89.75 19.58,-23.93 35.4,-52.99 47.45,-87.18 6.02,-13.68 13.55,-20.51 22.59,-20.51 13.55,0 23.72,14.1 30.5,42.31 6.78,28.2 10.17,53.42 10.17,75.64z"/>
    <path class="fil5" d="M12616.73 2405.35l2.26 64.11c0,10.25 6.03,15.38 18.07,15.38 48.2,-5.13 90.37,-19.23 126.51,-42.31 36.16,-23.08 63.26,-49.14 81.33,-78.21 36.16,-63.25 55.73,-117.95 58.74,-164.11l2.26 -30.77c0,-92.31 -32.39,-138.46 -97.15,-138.46 -48.19,0 -87.36,23.93 -117.48,71.8 -49.71,75.22 -74.56,176.08 -74.56,302.57zm492.52 341.04c0,64.96 -11.68,121.8 -35.02,170.52 -23.34,48.72 -49.7,84.62 -79.07,107.7 -29.37,23.08 -63.63,41.46 -102.8,55.13 -49.7,17.09 -97.15,25.64 -142.33,25.64 -126.51,0 -219.9,-53.85 -280.15,-161.54 -60.25,-107.7 -90.37,-244.88 -90.37,-411.56 0,-166.67 37.28,-314.97 111.83,-444.89 74.56,-129.91 186.39,-194.88 335.5,-194.88 135.56,0 227.44,53.85 275.64,161.55 19.58,41.03 29.37,79.92 29.37,116.67 0,36.76 -1.51,65.82 -4.52,87.19 -3,21.37 -13.55,53.42 -31.63,96.15 -18.07,42.74 -42.17,81.2 -72.3,115.39 -30.12,34.19 -77.57,66.67 -142.33,97.44 -64.77,30.77 -140.83,51.28 -228.19,61.54 -12.05,0 -18.07,5.98 -18.07,17.95 0,15.38 4.9,38.04 14.69,67.95 9.79,29.92 20.72,55.14 32.76,75.65 33.13,47.86 82.08,71.8 146.85,71.8 64.77,0 119.74,-23.93 164.93,-71.8 24.1,-25.64 43.68,-57.27 58.74,-94.87 6.03,-13.68 13.93,-20.52 23.72,-20.52 9.79,0 17.7,9.4 23.72,28.21 6.02,18.81 9.04,33.34 9.04,43.6z"/>
   </g>
  </g>
 </g>
</svg>
